<?xml version="1.0" encoding="UTF-8"?>
<svg width="700pt" height="700pt" version="1.1" viewBox="0 0 700 700" xmlns="http://www.w3.org/2000/svg">
 <g>
  <path d="m373.33 443.33c-23.633 0.10938-46.992-5.0742-68.367-15.164l-45.266-21.465 45.5-20.766v-0.003906c27.129-12.516 48.418-34.965 59.488-62.715 11.066-27.75 11.066-58.688 0-86.438-11.07-27.75-32.359-50.199-59.488-62.715l-45.5-20.766 45.266-21.465v-0.003907c21.375-10.09 44.734-15.273 68.367-15.164 58.355 0 112.28 31.129 141.45 81.664 29.176 50.535 29.176 112.8 0 163.34-29.176 50.535-83.098 81.664-141.45 81.664zm-2.332-46.668v0.003907c41.68 0 80.195-22.238 101.04-58.336 20.84-36.094 20.84-80.57 0-116.66-20.84-36.098-59.355-58.336-101.04-58.336 31.355 30.723 49.023 72.77 49.023 116.67s-17.668 85.945-49.023 116.67z"/>
  <path d="m256.67 443.33c-58.355 0-112.28-31.129-141.45-81.664-29.176-50.535-29.176-112.8 0-163.34 29.176-50.535 83.098-81.664 141.45-81.664 23.633-0.10938 46.992 5.0742 68.367 15.164 37.957 17.531 67.75 48.953 83.234 87.793s15.484 82.141 0 120.98c-15.484 38.84-45.277 70.262-83.234 87.793-21.406 9.9688-44.758 15.066-68.367 14.934zm0-280c-41.684 0-80.195 22.238-101.04 58.336-20.84 36.094-20.84 80.57 0 116.66 20.844 36.098 59.355 58.336 101.04 58.336 16.68 0.15625 33.188-3.4336 48.297-10.5 27.219-12.48 48.594-34.945 59.707-62.746s11.113-58.809 0-86.609-32.488-50.266-59.707-62.746c-15.074-7.1953-31.594-10.863-48.297-10.734z"/>
  <path d="m536.67 256.67h46.668c12.887 0 23.332 12.887 23.332 23.332 0 12.887-10.445 23.332-23.332 23.332h-46.668c-12.887 0-23.332-12.887-23.332-23.332 0-12.887 10.445-23.332 23.332-23.332z"/>
  <path d="m457.02 140.11 33-33c9.1133-9.1133 25.613-7.3867 33 0 9.1133 9.1133 9.1133 23.887 0 33l-33 33c-9.1133 9.1133-25.613 7.3867-33 0-9.1133-9.1133-9.1133-23.887 0-33z"/>
  <path d="m373.33 46.668c12.887 0 23.332 12.887 23.332 23.332v46.668c0 12.887-10.445 23.332-23.332 23.332s-23.332-12.887-23.332-23.332v-46.668c0-12.887 10.445-23.332 23.332-23.332z"/>
  <path d="m373.33 420c12.887 0 23.332 12.887 23.332 23.332v46.668c0 12.887-10.445 23.332-23.332 23.332s-23.332-12.887-23.332-23.332v-46.668c0-12.887 10.445-23.332 23.332-23.332z"/>
  <path d="m456.91 387c9.1133-9.1133 25.613-7.3867 33 0l33 33c9.1133 9.1133 9.1133 23.887 0 33s-25.613 7.3867-33 0l-33-33c-9.1133-9.1133-9.1133-23.887 0-33z"/>
  <path d="m233.33 140h46.668v280h-46.668z"/>
  <path d="m315 152.83c-18.25-8.5508-38.176-12.938-58.332-12.832v280c20.156 0.10547 40.082-4.2812 58.332-12.832 32.586-15.008 58.172-41.949 71.473-75.27 13.297-33.32 13.297-70.477 0-103.8-13.301-33.32-38.887-60.262-71.473-75.27z"/>
 </g>
</svg>
