<?xml version="1.0" encoding="utf-8"?>
<!-- Generator: Adobe Illustrator 26.1.0, SVG Export Plug-In . SVG Version: 6.00 Build 0)  -->
<svg version="1.1" id="Layer_1" xmlns="http://www.w3.org/2000/svg" xmlns:xlink="http://www.w3.org/1999/xlink" x="0px" y="0px"
	 viewBox="0 0 700 700" style="enable-background:new 0 0 700 700;" xml:space="preserve">
<style type="text/css">
	.st0{fill:#669FFC;}
</style>
<path class="st0" d="M350,46.7c-128.3,0-233.3,105-233.3,233.3s105,233.3,233.3,233.3s233.3-105,233.3-233.3S478.3,46.7,350,46.7
	L350,46.7z M466.7,303.3h-93.3v93.3c0,30.3-46.7,30.3-46.7,0v-93.3h-93.3c-30.3,0-30.3-46.7,0-46.7h93.3l0-93.3
	c0-30.3,46.7-30.3,46.7,0v93.3h93.3C497,256.7,497,303.3,466.7,303.3L466.7,303.3z"/>
</svg>
