<svg xmlns="http://www.w3.org/2000/svg" viewBox="0 0 100 100"><defs><style>.cls-1{fill:#2ab673;}</style></defs><g id="tree3"><path class="cls-1" d="M60.63,82.5c-1.74-1-2.27-2.91-2.46-6.58-.09-1.66.13-3.34,0-5-.28-3.77,1.08-5.42,5.14-5.24,5.24.23,10.5-.13,16.59-.25L67.33,51.54,73.78,50,62,36.92l7.32-1.5L50,15.51c-5.62,5.88-10.9,11.38-16.14,16.92-.88.93-1.62,2-2.7,3.34l7,1.27L26.36,50.14l6.39,1.7L20.1,65.69c4.8,0,8.25.11,11.71.1C42.56,65.74,43,66.25,41.62,77a9.15,9.15,0,0,1-4.24,6.54C45.24,84.25,53,85.71,60.63,82.5Z"/></g></svg>