<svg xmlns="http://www.w3.org/2000/svg" viewBox="0 0 100 100"><defs><style>.cls-1{fill:#2ab673;}</style></defs><g id="tree1"><path class="cls-1" d="M57.37,67.33a9.43,9.43,0,0,0-.2,1c-.71,4.67.61,11.42,1.27,14.34a1.43,1.43,0,0,1-1.13,1.72c-5.14,1-21.84,4-19.55,1.37s3-14.82,3.2-18.56a1.4,1.4,0,0,0-1.39-1.5.9.9,0,0,0-.8.39s-12.55,4.84-19.62-10C12.9,43,28.72,34.93,32.41,33.27a1.42,1.42,0,0,0,.83-1.12c.42-3.44,2.94-16.92,16.59-18.78,14.26-1.95,19.52,13.84,18.65,18.36a1.42,1.42,0,0,0,.74,1.55c3.84,2,15.64,9,12.57,18.74-3.65,11.61-10.85,19.17-22,14.63C59.79,66.65,57.82,65.86,57.37,67.33Z"/></g></svg>